<mxfile host="www.draw.io" modified="2020-02-24T10:52:04.853Z" agent="Mozilla/5.0 (Windows NT 6.1; WOW64) AppleWebKit/537.36 (KHTML, like Gecko) Chrome/78.0.3904.97 Safari/537.36" etag="Pw7F_GXfqxdp1uTQywxm" version="12.7.4" type="github" pages="2">
  <diagram id="dETMLGE-Jsv8qNjl7HHf" name="Page-1">
    <mxGraphModel dx="2173" dy="1949" grid="1" gridSize="10" guides="1" tooltips="1" connect="1" arrows="1" fold="1" page="1" pageScale="1" pageWidth="827" pageHeight="1169" math="0" shadow="0">
      <root>
        <mxCell id="0" />
        <mxCell id="1" parent="0" />
        <mxCell id="TcW5GmjVmZUl__IUt4cR-1" style="edgeStyle=orthogonalEdgeStyle;rounded=0;orthogonalLoop=1;jettySize=auto;html=1;exitX=0.5;exitY=1;exitDx=0;exitDy=0;entryX=0;entryY=0.5;entryDx=0;entryDy=0;" edge="1" parent="1" source="TcW5GmjVmZUl__IUt4cR-4" target="TcW5GmjVmZUl__IUt4cR-6">
          <mxGeometry relative="1" as="geometry" />
        </mxCell>
        <mxCell id="TcW5GmjVmZUl__IUt4cR-2" style="edgeStyle=orthogonalEdgeStyle;rounded=0;orthogonalLoop=1;jettySize=auto;html=1;exitX=0.5;exitY=1;exitDx=0;exitDy=0;entryX=0;entryY=0.5;entryDx=0;entryDy=0;" edge="1" parent="1" source="TcW5GmjVmZUl__IUt4cR-4" target="TcW5GmjVmZUl__IUt4cR-8">
          <mxGeometry relative="1" as="geometry" />
        </mxCell>
        <mxCell id="TcW5GmjVmZUl__IUt4cR-3" style="edgeStyle=orthogonalEdgeStyle;rounded=0;orthogonalLoop=1;jettySize=auto;html=1;exitX=0.5;exitY=1;exitDx=0;exitDy=0;entryX=0;entryY=0.5;entryDx=0;entryDy=0;" edge="1" parent="1" source="TcW5GmjVmZUl__IUt4cR-4" target="TcW5GmjVmZUl__IUt4cR-9">
          <mxGeometry relative="1" as="geometry" />
        </mxCell>
        <mxCell id="TcW5GmjVmZUl__IUt4cR-13" style="edgeStyle=orthogonalEdgeStyle;rounded=0;orthogonalLoop=1;jettySize=auto;html=1;exitX=0.5;exitY=1;exitDx=0;exitDy=0;entryX=0;entryY=0.5;entryDx=0;entryDy=0;" edge="1" parent="1" source="TcW5GmjVmZUl__IUt4cR-4" target="TcW5GmjVmZUl__IUt4cR-12">
          <mxGeometry relative="1" as="geometry" />
        </mxCell>
        <mxCell id="TcW5GmjVmZUl__IUt4cR-4" value="Hypotheek&lt;br&gt;(0-9)" style="rounded=1;whiteSpace=wrap;html=1;fontStyle=0;" vertex="1" parent="1">
          <mxGeometry x="-640.0032519531255" y="-780" width="120" height="60" as="geometry" />
        </mxCell>
        <mxCell id="TcW5GmjVmZUl__IUt4cR-5" style="edgeStyle=orthogonalEdgeStyle;rounded=0;orthogonalLoop=1;jettySize=auto;html=1;exitX=0.5;exitY=1;exitDx=0;exitDy=0;entryX=0;entryY=0.5;entryDx=0;entryDy=0;" edge="1" parent="1" source="TcW5GmjVmZUl__IUt4cR-6" target="TcW5GmjVmZUl__IUt4cR-7">
          <mxGeometry relative="1" as="geometry" />
        </mxCell>
        <mxCell id="TcW5GmjVmZUl__IUt4cR-15" style="edgeStyle=orthogonalEdgeStyle;rounded=0;orthogonalLoop=1;jettySize=auto;html=1;exitX=0.5;exitY=1;exitDx=0;exitDy=0;entryX=0;entryY=0.5;entryDx=0;entryDy=0;" edge="1" parent="1" source="TcW5GmjVmZUl__IUt4cR-6" target="TcW5GmjVmZUl__IUt4cR-14">
          <mxGeometry relative="1" as="geometry" />
        </mxCell>
        <mxCell id="TcW5GmjVmZUl__IUt4cR-6" value="Lening&lt;br&gt;(0-9)" style="rounded=1;whiteSpace=wrap;html=1;fontStyle=0" vertex="1" parent="1">
          <mxGeometry x="-518.0032519531253" y="-650" width="120" height="60" as="geometry" />
        </mxCell>
        <mxCell id="TcW5GmjVmZUl__IUt4cR-11" style="edgeStyle=orthogonalEdgeStyle;rounded=0;orthogonalLoop=1;jettySize=auto;html=1;exitX=0.5;exitY=1;exitDx=0;exitDy=0;entryX=0;entryY=0.5;entryDx=0;entryDy=0;" edge="1" parent="1" source="TcW5GmjVmZUl__IUt4cR-7" target="TcW5GmjVmZUl__IUt4cR-10">
          <mxGeometry relative="1" as="geometry" />
        </mxCell>
        <mxCell id="TcW5GmjVmZUl__IUt4cR-7" value="Leningdeel&lt;br&gt;(0-25)" style="rounded=1;whiteSpace=wrap;html=1;fontStyle=0" vertex="1" parent="1">
          <mxGeometry x="-398.0032519531253" y="-524" width="120" height="60" as="geometry" />
        </mxCell>
        <mxCell id="TcW5GmjVmZUl__IUt4cR-17" style="edgeStyle=orthogonalEdgeStyle;rounded=0;orthogonalLoop=1;jettySize=auto;html=1;exitX=0.5;exitY=1;exitDx=0;exitDy=0;entryX=0;entryY=0.5;entryDx=0;entryDy=0;" edge="1" parent="1" source="TcW5GmjVmZUl__IUt4cR-8" target="TcW5GmjVmZUl__IUt4cR-16">
          <mxGeometry relative="1" as="geometry" />
        </mxCell>
        <mxCell id="TcW5GmjVmZUl__IUt4cR-8" value="Depot&lt;br&gt;(0-9)" style="rounded=1;whiteSpace=wrap;html=1;fontStyle=0;" vertex="1" parent="1">
          <mxGeometry x="-518.0000000000005" y="-404" width="120" height="60" as="geometry" />
        </mxCell>
        <mxCell id="TcW5GmjVmZUl__IUt4cR-19" style="edgeStyle=orthogonalEdgeStyle;rounded=0;orthogonalLoop=1;jettySize=auto;html=1;exitX=0.5;exitY=1;exitDx=0;exitDy=0;entryX=0;entryY=0.5;entryDx=0;entryDy=0;" edge="1" parent="1" source="TcW5GmjVmZUl__IUt4cR-9" target="TcW5GmjVmZUl__IUt4cR-18">
          <mxGeometry relative="1" as="geometry" />
        </mxCell>
        <mxCell id="TcW5GmjVmZUl__IUt4cR-9" value="Bijverband&lt;br&gt;(0-9)" style="rounded=1;whiteSpace=wrap;html=1;fontStyle=0;" vertex="1" parent="1">
          <mxGeometry x="-520.0000000000005" y="-280" width="120" height="60" as="geometry" />
        </mxCell>
        <mxCell id="TcW5GmjVmZUl__IUt4cR-10" value="&lt;b&gt;Leningdeel&lt;/b&gt;&lt;br&gt;Mutatie&lt;br&gt;(0-1)" style="rounded=1;whiteSpace=wrap;html=1;fontStyle=0;fillColor=#f8cecc;strokeColor=#b85450;" vertex="1" parent="1">
          <mxGeometry x="-278.0032519531253" y="-464" width="120" height="60" as="geometry" />
        </mxCell>
        <mxCell id="TcW5GmjVmZUl__IUt4cR-12" value="Hypotheek&lt;br&gt;Mutatie&lt;br&gt;(0-1)" style="rounded=1;whiteSpace=wrap;html=1;fontStyle=0;fillColor=#f8cecc;strokeColor=#b85450;" vertex="1" parent="1">
          <mxGeometry x="-518.0032519531253" y="-720" width="120" height="60" as="geometry" />
        </mxCell>
        <mxCell id="TcW5GmjVmZUl__IUt4cR-14" value="&lt;b&gt;Lening&lt;/b&gt;&lt;br&gt;Mutatie&lt;br&gt;(0-1)" style="rounded=1;whiteSpace=wrap;html=1;fontStyle=0;fillColor=#f8cecc;strokeColor=#b85450;" vertex="1" parent="1">
          <mxGeometry x="-400.0032519531253" y="-590" width="120" height="60" as="geometry" />
        </mxCell>
        <mxCell id="TcW5GmjVmZUl__IUt4cR-16" value="&lt;b&gt;Depot&lt;/b&gt;&lt;br&gt;Mutatie&lt;br&gt;(0-1)" style="rounded=1;whiteSpace=wrap;html=1;fontStyle=0;fillColor=#f8cecc;strokeColor=#b85450;" vertex="1" parent="1">
          <mxGeometry x="-398.0032519531253" y="-344" width="120" height="60" as="geometry" />
        </mxCell>
        <mxCell id="TcW5GmjVmZUl__IUt4cR-18" value="&lt;b&gt;Bijverband&lt;/b&gt;&lt;br&gt;Mutatie&lt;br&gt;(0-1)" style="rounded=1;whiteSpace=wrap;html=1;fontStyle=0;fillColor=#f8cecc;strokeColor=#b85450;" vertex="1" parent="1">
          <mxGeometry x="-400.0032519531253" y="-220" width="120" height="60" as="geometry" />
        </mxCell>
      </root>
    </mxGraphModel>
  </diagram>
  <diagram id="vCjLreX6xmczTSJzo4OS" name="Page-2">
    <mxGraphModel dx="1935" dy="1811" grid="1" gridSize="10" guides="1" tooltips="1" connect="1" arrows="1" fold="1" page="1" pageScale="1" pageWidth="827" pageHeight="1169" math="0" shadow="0">
      <root>
        <mxCell id="6wkwQaBuw2jkdc4RXkgm-0" />
        <mxCell id="6wkwQaBuw2jkdc4RXkgm-1" parent="6wkwQaBuw2jkdc4RXkgm-0" />
        <mxCell id="cxz-GGLIXI3dMg_OWLTw-0" style="edgeStyle=orthogonalEdgeStyle;rounded=0;orthogonalLoop=1;jettySize=auto;html=1;exitX=0.5;exitY=1;exitDx=0;exitDy=0;entryX=0;entryY=0.5;entryDx=0;entryDy=0;" edge="1" parent="6wkwQaBuw2jkdc4RXkgm-1" source="cxz-GGLIXI3dMg_OWLTw-2" target="cxz-GGLIXI3dMg_OWLTw-4">
          <mxGeometry relative="1" as="geometry" />
        </mxCell>
        <mxCell id="cxz-GGLIXI3dMg_OWLTw-1" style="edgeStyle=orthogonalEdgeStyle;rounded=0;orthogonalLoop=1;jettySize=auto;html=1;exitX=0.5;exitY=1;exitDx=0;exitDy=0;entryX=0;entryY=0.5;entryDx=0;entryDy=0;" edge="1" parent="6wkwQaBuw2jkdc4RXkgm-1" source="cxz-GGLIXI3dMg_OWLTw-2" target="cxz-GGLIXI3dMg_OWLTw-5">
          <mxGeometry relative="1" as="geometry" />
        </mxCell>
        <mxCell id="cxz-GGLIXI3dMg_OWLTw-2" value="Hypotheek#1" style="rounded=1;whiteSpace=wrap;html=1;fontStyle=0;" vertex="1" parent="6wkwQaBuw2jkdc4RXkgm-1">
          <mxGeometry x="-790.0032519531255" y="-1130" width="120" height="60" as="geometry" />
        </mxCell>
        <mxCell id="cxz-GGLIXI3dMg_OWLTw-3" style="edgeStyle=orthogonalEdgeStyle;rounded=0;orthogonalLoop=1;jettySize=auto;html=1;exitX=0.5;exitY=1;exitDx=0;exitDy=0;entryX=0;entryY=0.5;entryDx=0;entryDy=0;" edge="1" parent="6wkwQaBuw2jkdc4RXkgm-1" source="cxz-GGLIXI3dMg_OWLTw-4" target="cxz-GGLIXI3dMg_OWLTw-6">
          <mxGeometry relative="1" as="geometry" />
        </mxCell>
        <mxCell id="V05-qUcKijU074Fw38Ei-3" style="edgeStyle=orthogonalEdgeStyle;rounded=0;orthogonalLoop=1;jettySize=auto;html=1;exitX=0.5;exitY=1;exitDx=0;exitDy=0;entryX=0;entryY=0.5;entryDx=0;entryDy=0;" edge="1" parent="6wkwQaBuw2jkdc4RXkgm-1" source="cxz-GGLIXI3dMg_OWLTw-4" target="V05-qUcKijU074Fw38Ei-0">
          <mxGeometry relative="1" as="geometry" />
        </mxCell>
        <mxCell id="V05-qUcKijU074Fw38Ei-5" style="edgeStyle=orthogonalEdgeStyle;rounded=0;orthogonalLoop=1;jettySize=auto;html=1;exitX=0.5;exitY=1;exitDx=0;exitDy=0;entryX=0;entryY=0.5;entryDx=0;entryDy=0;" edge="1" parent="6wkwQaBuw2jkdc4RXkgm-1" source="cxz-GGLIXI3dMg_OWLTw-4" target="V05-qUcKijU074Fw38Ei-4">
          <mxGeometry relative="1" as="geometry" />
        </mxCell>
        <mxCell id="V05-qUcKijU074Fw38Ei-28" style="edgeStyle=orthogonalEdgeStyle;rounded=0;orthogonalLoop=1;jettySize=auto;html=1;exitX=0.5;exitY=1;exitDx=0;exitDy=0;entryX=0;entryY=0.5;entryDx=0;entryDy=0;" edge="1" parent="6wkwQaBuw2jkdc4RXkgm-1" source="cxz-GGLIXI3dMg_OWLTw-4" target="V05-qUcKijU074Fw38Ei-6">
          <mxGeometry relative="1" as="geometry" />
        </mxCell>
        <mxCell id="V05-qUcKijU074Fw38Ei-29" style="edgeStyle=orthogonalEdgeStyle;rounded=0;orthogonalLoop=1;jettySize=auto;html=1;exitX=0.5;exitY=1;exitDx=0;exitDy=0;entryX=0;entryY=0.5;entryDx=0;entryDy=0;" edge="1" parent="6wkwQaBuw2jkdc4RXkgm-1" source="cxz-GGLIXI3dMg_OWLTw-4" target="V05-qUcKijU074Fw38Ei-7">
          <mxGeometry relative="1" as="geometry" />
        </mxCell>
        <mxCell id="V05-qUcKijU074Fw38Ei-30" style="edgeStyle=orthogonalEdgeStyle;rounded=0;orthogonalLoop=1;jettySize=auto;html=1;exitX=0.5;exitY=1;exitDx=0;exitDy=0;entryX=0;entryY=0.5;entryDx=0;entryDy=0;" edge="1" parent="6wkwQaBuw2jkdc4RXkgm-1" source="cxz-GGLIXI3dMg_OWLTw-4" target="V05-qUcKijU074Fw38Ei-22">
          <mxGeometry relative="1" as="geometry" />
        </mxCell>
        <mxCell id="cxz-GGLIXI3dMg_OWLTw-4" value="Lening#1" style="rounded=1;whiteSpace=wrap;html=1;fontStyle=0" vertex="1" parent="6wkwQaBuw2jkdc4RXkgm-1">
          <mxGeometry x="-672.0032519531253" y="-990" width="120" height="60" as="geometry" />
        </mxCell>
        <mxCell id="cxz-GGLIXI3dMg_OWLTw-5" value="Hypotheek#1&lt;br&gt;Mutatie" style="rounded=1;whiteSpace=wrap;html=1;fontStyle=0;fillColor=#f8cecc;strokeColor=#b85450;" vertex="1" parent="6wkwQaBuw2jkdc4RXkgm-1">
          <mxGeometry x="-672.0032519531253" y="-1060" width="120" height="60" as="geometry" />
        </mxCell>
        <mxCell id="cxz-GGLIXI3dMg_OWLTw-6" value="&lt;b&gt;Lening#1&lt;/b&gt;&lt;br&gt;Mutatie" style="rounded=1;whiteSpace=wrap;html=1;fontStyle=0;fillColor=#f8cecc;strokeColor=#b85450;" vertex="1" parent="6wkwQaBuw2jkdc4RXkgm-1">
          <mxGeometry x="-552.0032519531253" y="-920" width="120" height="60" as="geometry" />
        </mxCell>
        <mxCell id="cxz-GGLIXI3dMg_OWLTw-7" value="HypotheekNrbestaand = H1234567&lt;br&gt;MutatieType = &quot;wijzigen&quot;" style="text;html=1;strokeColor=none;fillColor=none;align=left;verticalAlign=middle;whiteSpace=wrap;rounded=0;" vertex="1" parent="6wkwQaBuw2jkdc4RXkgm-1">
          <mxGeometry x="-660" y="-1110" width="210" height="20" as="geometry" />
        </mxCell>
        <mxCell id="cxz-GGLIXI3dMg_OWLTw-8" value="LooptijdVerkortenJN = &quot;Nee&quot;&lt;br&gt;Onderhandsverhogen = &quot;Nee&quot;&lt;br&gt;Lening_wijzigen = &quot;Ja&quot;&lt;br&gt;...." style="text;html=1;strokeColor=none;fillColor=none;align=left;verticalAlign=middle;whiteSpace=wrap;rounded=0;" vertex="1" parent="6wkwQaBuw2jkdc4RXkgm-1">
          <mxGeometry x="-540" y="-1040" width="210" height="20" as="geometry" />
        </mxCell>
        <mxCell id="cxz-GGLIXI3dMg_OWLTw-9" value="LeningNrbestaand = H1234567&lt;br&gt;MutatieType = &quot;wijzigen&quot;&lt;br&gt;HuidigAantalLeningdelen = 3" style="text;html=1;strokeColor=none;fillColor=none;align=left;verticalAlign=middle;whiteSpace=wrap;rounded=0;" vertex="1" parent="6wkwQaBuw2jkdc4RXkgm-1">
          <mxGeometry x="-540" y="-971" width="210" height="20" as="geometry" />
        </mxCell>
        <mxCell id="cxz-GGLIXI3dMg_OWLTw-10" value="MutatieType = &quot;verhogen&quot;&lt;br&gt;NieuweHoofdsom = &quot;250.000,00&quot;&lt;br&gt;NieuweAantalLeningdelen = 5" style="text;html=1;strokeColor=none;fillColor=none;align=left;verticalAlign=middle;whiteSpace=wrap;rounded=0;" vertex="1" parent="6wkwQaBuw2jkdc4RXkgm-1">
          <mxGeometry x="-413" y="-900" width="210" height="20" as="geometry" />
        </mxCell>
        <mxCell id="V05-qUcKijU074Fw38Ei-12" style="edgeStyle=orthogonalEdgeStyle;rounded=0;orthogonalLoop=1;jettySize=auto;html=1;exitX=0.5;exitY=1;exitDx=0;exitDy=0;entryX=0;entryY=0.5;entryDx=0;entryDy=0;" edge="1" parent="6wkwQaBuw2jkdc4RXkgm-1" source="V05-qUcKijU074Fw38Ei-0" target="V05-qUcKijU074Fw38Ei-1">
          <mxGeometry relative="1" as="geometry" />
        </mxCell>
        <mxCell id="V05-qUcKijU074Fw38Ei-0" value="Leningdeel#1" style="rounded=1;whiteSpace=wrap;html=1;fontStyle=0" vertex="1" parent="6wkwQaBuw2jkdc4RXkgm-1">
          <mxGeometry x="-553.0032519531253" y="-850" width="120" height="60" as="geometry" />
        </mxCell>
        <mxCell id="V05-qUcKijU074Fw38Ei-1" value="&lt;b&gt;Leningdeel#1&lt;/b&gt;&lt;br&gt;Mutatie" style="rounded=1;whiteSpace=wrap;html=1;fontStyle=0;fillColor=#f8cecc;strokeColor=#b85450;" vertex="1" parent="6wkwQaBuw2jkdc4RXkgm-1">
          <mxGeometry x="-432.0032519531253" y="-770" width="120" height="60" as="geometry" />
        </mxCell>
        <mxCell id="V05-qUcKijU074Fw38Ei-2" value="InternId = 1&lt;br&gt;LeningDeelNrbestaand = H1234567-L1&lt;br&gt;MutatieType = &quot;wijzigen&quot;&lt;br&gt;RestantSaldoHuidig = &quot;50.000,00&quot;&lt;br&gt;AflosvormHuidig = &quot;Aflossingsvrij&quot;" style="text;html=1;strokeColor=none;fillColor=none;align=left;verticalAlign=middle;whiteSpace=wrap;rounded=0;" vertex="1" parent="6wkwQaBuw2jkdc4RXkgm-1">
          <mxGeometry x="-414" y="-830" width="250" height="20" as="geometry" />
        </mxCell>
        <mxCell id="V05-qUcKijU074Fw38Ei-14" style="edgeStyle=orthogonalEdgeStyle;rounded=0;orthogonalLoop=1;jettySize=auto;html=1;exitX=0.5;exitY=1;exitDx=0;exitDy=0;entryX=0;entryY=0.5;entryDx=0;entryDy=0;" edge="1" parent="6wkwQaBuw2jkdc4RXkgm-1" source="V05-qUcKijU074Fw38Ei-4" target="V05-qUcKijU074Fw38Ei-13">
          <mxGeometry relative="1" as="geometry" />
        </mxCell>
        <mxCell id="V05-qUcKijU074Fw38Ei-4" value="Leningdeel#2" style="rounded=1;whiteSpace=wrap;html=1;fontStyle=0" vertex="1" parent="6wkwQaBuw2jkdc4RXkgm-1">
          <mxGeometry x="-552.0032519531253" y="-690" width="120" height="60" as="geometry" />
        </mxCell>
        <mxCell id="V05-qUcKijU074Fw38Ei-33" style="edgeStyle=orthogonalEdgeStyle;rounded=0;orthogonalLoop=1;jettySize=auto;html=1;exitX=0.5;exitY=1;exitDx=0;exitDy=0;entryX=0;entryY=0.5;entryDx=0;entryDy=0;" edge="1" parent="6wkwQaBuw2jkdc4RXkgm-1" source="V05-qUcKijU074Fw38Ei-6" target="V05-qUcKijU074Fw38Ei-32">
          <mxGeometry relative="1" as="geometry" />
        </mxCell>
        <mxCell id="V05-qUcKijU074Fw38Ei-6" value="Leningdeel#3" style="rounded=1;whiteSpace=wrap;html=1;fontStyle=0" vertex="1" parent="6wkwQaBuw2jkdc4RXkgm-1">
          <mxGeometry x="-553.0032519531253" y="-550" width="120" height="60" as="geometry" />
        </mxCell>
        <mxCell id="V05-qUcKijU074Fw38Ei-20" style="edgeStyle=orthogonalEdgeStyle;rounded=0;orthogonalLoop=1;jettySize=auto;html=1;exitX=0.5;exitY=1;exitDx=0;exitDy=0;entryX=0;entryY=0.5;entryDx=0;entryDy=0;" edge="1" parent="6wkwQaBuw2jkdc4RXkgm-1" source="V05-qUcKijU074Fw38Ei-7" target="V05-qUcKijU074Fw38Ei-19">
          <mxGeometry relative="1" as="geometry" />
        </mxCell>
        <mxCell id="V05-qUcKijU074Fw38Ei-7" value="Leningdeel#4" style="rounded=1;whiteSpace=wrap;html=1;fontStyle=0" vertex="1" parent="6wkwQaBuw2jkdc4RXkgm-1">
          <mxGeometry x="-553.0032519531253" y="-400" width="120" height="60" as="geometry" />
        </mxCell>
        <mxCell id="V05-qUcKijU074Fw38Ei-8" value="InternId = 2&lt;br&gt;LeningDeelNrbestaand = H1234567-L2&lt;br&gt;MutatieType = &quot;wijzigen&quot;&lt;br&gt;&lt;span style=&quot;white-space: nowrap&quot;&gt;RestantSaldoHuidig = 100.000,00&lt;br&gt;AflosvormHuidig = &quot;Spaarrekening&quot;&lt;br&gt;&lt;/span&gt;" style="text;html=1;strokeColor=none;fillColor=none;align=left;verticalAlign=middle;whiteSpace=wrap;rounded=0;" vertex="1" parent="6wkwQaBuw2jkdc4RXkgm-1">
          <mxGeometry x="-414" y="-670" width="250" height="20" as="geometry" />
        </mxCell>
        <mxCell id="V05-qUcKijU074Fw38Ei-9" value="InternId = 3&lt;br&gt;LeningDeelNrbestaand = H1234567-L3&lt;br&gt;MutatieType = &quot;wijzigen&quot;" style="text;html=1;strokeColor=none;fillColor=none;align=left;verticalAlign=middle;whiteSpace=wrap;rounded=0;" vertex="1" parent="6wkwQaBuw2jkdc4RXkgm-1">
          <mxGeometry x="-414" y="-520" width="250" height="20" as="geometry" />
        </mxCell>
        <mxCell id="V05-qUcKijU074Fw38Ei-10" value="InternId = 5&lt;br&gt;LeningDeelNrbestaand = NULL&lt;br&gt;MutatieType = &quot;nieuw&quot;" style="text;html=1;strokeColor=none;fillColor=none;align=left;verticalAlign=middle;whiteSpace=wrap;rounded=0;" vertex="1" parent="6wkwQaBuw2jkdc4RXkgm-1">
          <mxGeometry x="-420" y="-240" width="250" height="20" as="geometry" />
        </mxCell>
        <mxCell id="V05-qUcKijU074Fw38Ei-11" value="MutatieType = &quot;omzetten Aflosvorm&quot;&lt;br&gt;NieuweAflosvorm = &quot;Annuitair&quot;&lt;br&gt;NieuwLeningdeelBedrag = &amp;lt;ZelfdeAlsHuidig&amp;gt;" style="text;html=1;strokeColor=none;fillColor=none;align=left;verticalAlign=middle;whiteSpace=wrap;rounded=0;" vertex="1" parent="6wkwQaBuw2jkdc4RXkgm-1">
          <mxGeometry x="-293" y="-750" width="270" height="20" as="geometry" />
        </mxCell>
        <mxCell id="V05-qUcKijU074Fw38Ei-13" value="&lt;b&gt;Leningdeel#2&lt;/b&gt;&lt;br&gt;Mutatie" style="rounded=1;whiteSpace=wrap;html=1;fontStyle=0;fillColor=#f8cecc;strokeColor=#b85450;" vertex="1" parent="6wkwQaBuw2jkdc4RXkgm-1">
          <mxGeometry x="-430.0032519531253" y="-610" width="120" height="60" as="geometry" />
        </mxCell>
        <mxCell id="V05-qUcKijU074Fw38Ei-17" value="MutatieType = &quot;wijzigen door splitsen&quot;&lt;br&gt;NieuweAflosvorm = &amp;lt;ZelfdeAlsHuidig&amp;gt;&lt;br&gt;NieuwLeningdeelBedrag = 70.000,00&lt;br&gt;SplitsPercentage = 70%&lt;br&gt;RefLeningdeelNrBestaand = H1234567-L2" style="text;html=1;strokeColor=none;fillColor=none;align=left;verticalAlign=middle;whiteSpace=wrap;rounded=0;" vertex="1" parent="6wkwQaBuw2jkdc4RXkgm-1">
          <mxGeometry x="-293" y="-590" width="270" height="20" as="geometry" />
        </mxCell>
        <mxCell id="V05-qUcKijU074Fw38Ei-18" value="MutatieType = &quot;nieuw door splitsen&quot;&lt;br&gt;NieuweAflosvorm = &quot;annuitair&quot;&lt;br&gt;NieuwLeningdeelBedrag = 30.000,00&lt;br&gt;SplitsPercentage = 30%&lt;br&gt;RefLeningdeelNrBestaand = H1234567-L2" style="text;html=1;strokeColor=none;fillColor=none;align=left;verticalAlign=middle;whiteSpace=wrap;rounded=0;" vertex="1" parent="6wkwQaBuw2jkdc4RXkgm-1">
          <mxGeometry x="-293" y="-310" width="270" height="20" as="geometry" />
        </mxCell>
        <mxCell id="V05-qUcKijU074Fw38Ei-19" value="&lt;b&gt;Leningdeel#4&lt;/b&gt;&lt;br&gt;Mutatie" style="rounded=1;whiteSpace=wrap;html=1;fontStyle=0;fillColor=#f8cecc;strokeColor=#b85450;" vertex="1" parent="6wkwQaBuw2jkdc4RXkgm-1">
          <mxGeometry x="-433.0032519531253" y="-330" width="120" height="60" as="geometry" />
        </mxCell>
        <mxCell id="V05-qUcKijU074Fw38Ei-24" style="edgeStyle=orthogonalEdgeStyle;rounded=0;orthogonalLoop=1;jettySize=auto;html=1;exitX=0.5;exitY=1;exitDx=0;exitDy=0;entryX=0;entryY=0.5;entryDx=0;entryDy=0;" edge="1" parent="6wkwQaBuw2jkdc4RXkgm-1" source="V05-qUcKijU074Fw38Ei-22" target="V05-qUcKijU074Fw38Ei-23">
          <mxGeometry relative="1" as="geometry" />
        </mxCell>
        <mxCell id="V05-qUcKijU074Fw38Ei-22" value="Leningdeel#5" style="rounded=1;whiteSpace=wrap;html=1;fontStyle=0" vertex="1" parent="6wkwQaBuw2jkdc4RXkgm-1">
          <mxGeometry x="-553.0032519531253" y="-260" width="120" height="60" as="geometry" />
        </mxCell>
        <mxCell id="V05-qUcKijU074Fw38Ei-23" value="&lt;b&gt;Leningdeel#5&lt;/b&gt;&lt;br&gt;Mutatie" style="rounded=1;whiteSpace=wrap;html=1;fontStyle=0;fillColor=#f8cecc;strokeColor=#b85450;" vertex="1" parent="6wkwQaBuw2jkdc4RXkgm-1">
          <mxGeometry x="-432.0032519531253" y="-190" width="120" height="60" as="geometry" />
        </mxCell>
        <mxCell id="V05-qUcKijU074Fw38Ei-25" value="InternId = 4&lt;br&gt;LeningDeelNrbestaand = NULL&lt;br&gt;MutatieType = &quot;nieuw&quot;" style="text;html=1;strokeColor=none;fillColor=none;align=left;verticalAlign=middle;whiteSpace=wrap;rounded=0;" vertex="1" parent="6wkwQaBuw2jkdc4RXkgm-1">
          <mxGeometry x="-414" y="-380" width="250" height="20" as="geometry" />
        </mxCell>
        <mxCell id="V05-qUcKijU074Fw38Ei-26" value="MutatieType = &quot;nieuw door verhogen&quot;&lt;br&gt;NieuweAflosvorm = &quot;Aflossingsvrij&quot;&lt;br&gt;NieuwLeningdeelBedrag = 30.000,00" style="text;html=1;strokeColor=none;fillColor=none;align=left;verticalAlign=middle;whiteSpace=wrap;rounded=0;" vertex="1" parent="6wkwQaBuw2jkdc4RXkgm-1">
          <mxGeometry x="-293" y="-170" width="270" height="20" as="geometry" />
        </mxCell>
        <mxCell id="V05-qUcKijU074Fw38Ei-31" value="MutatieType = &quot;omzetten naar marktrente&quot;" style="text;html=1;strokeColor=none;fillColor=none;align=left;verticalAlign=middle;whiteSpace=wrap;rounded=0;" vertex="1" parent="6wkwQaBuw2jkdc4RXkgm-1">
          <mxGeometry x="-300" y="-463" width="270" height="20" as="geometry" />
        </mxCell>
        <mxCell id="V05-qUcKijU074Fw38Ei-32" value="&lt;b&gt;Leningdeel#2&lt;/b&gt;&lt;br&gt;Mutatie" style="rounded=1;whiteSpace=wrap;html=1;fontStyle=0;fillColor=#f8cecc;strokeColor=#b85450;" vertex="1" parent="6wkwQaBuw2jkdc4RXkgm-1">
          <mxGeometry x="-433.0032519531253" y="-470" width="120" height="60" as="geometry" />
        </mxCell>
        <mxCell id="V05-qUcKijU074Fw38Ei-35" value="Text" style="text;html=1;align=center;verticalAlign=middle;resizable=0;points=[];autosize=1;" vertex="1" parent="6wkwQaBuw2jkdc4RXkgm-1">
          <mxGeometry x="-379" y="-443" width="40" height="20" as="geometry" />
        </mxCell>
      </root>
    </mxGraphModel>
  </diagram>
</mxfile>
